<?xml version="1.0" encoding="UTF-8"?>
<svg id="Camada_2" data-name="Camada 2" xmlns="http://www.w3.org/2000/svg" xmlns:xlink="http://www.w3.org/1999/xlink" viewBox="0 0 664.77 411.15">
  <defs>
    <style>
      .cls-1 {
        fill: url(#Gradiente_sem_nome_791);
        stroke: url(#Gradiente_sem_nome_772);
      }

      .cls-1, .cls-2, .cls-3, .cls-4 {
        stroke-width: .5px;
      }

      .cls-1, .cls-2, .cls-3, .cls-4, .cls-5 {
        stroke-miterlimit: 10;
      }

      .cls-2 {
        fill: url(#Gradiente_sem_nome_829);
        stroke: url(#Gradiente_sem_nome_769);
      }

      .cls-6 {
        font-family: Montserrat-Light, Montserrat;
        font-size: 24px;
        font-weight: 300;
        letter-spacing: .5em;
      }

      .cls-6, .cls-5, .cls-7 {
        fill: #fff;
      }

      .cls-3 {
        fill: url(#Gradiente_sem_nome_850);
        stroke: url(#Gradiente_sem_nome_769-3);
      }

      .cls-4 {
        fill: url(#Gradiente_sem_nome_812);
        stroke: url(#Gradiente_sem_nome_769-2);
      }

      .cls-5 {
        stroke: #fff;
        stroke-width: 2px;
      }

      .cls-7 {
        font-family: Montserrat-SemiBold, Montserrat;
        font-size: 72px;
        font-weight: 600;
        letter-spacing: .15em;
      }
    </style>
    <linearGradient id="Gradiente_sem_nome_791" data-name="Gradiente sem nome 791" x1="204.35" y1="268.65" x2="204.35" y2="72.36" gradientUnits="userSpaceOnUse">
      <stop offset=".09" stop-color="#9f8047"/>
      <stop offset=".25" stop-color="#a3854a"/>
      <stop offset=".42" stop-color="#e2be87"/>
      <stop offset=".44" stop-color="#e7c892"/>
      <stop offset=".5" stop-color="#f3dfab"/>
      <stop offset=".55" stop-color="#faeeba"/>
      <stop offset=".6" stop-color="#fdf3c0"/>
      <stop offset=".64" stop-color="#e4d49e"/>
      <stop offset=".7" stop-color="#c8b178"/>
      <stop offset=".74" stop-color="#b79b61"/>
      <stop offset=".77" stop-color="#b19459"/>
      <stop offset=".91" stop-color="#d7bb80"/>
    </linearGradient>
    <linearGradient id="Gradiente_sem_nome_772" data-name="Gradiente sem nome 772" x1="105.43" y1="170.5" x2="303.26" y2="170.5" gradientUnits="userSpaceOnUse">
      <stop offset=".02" stop-color="#dbb66b"/>
      <stop offset=".22" stop-color="#aa8b51"/>
      <stop offset=".51" stop-color="#a38447"/>
      <stop offset="1" stop-color="#ceb378"/>
    </linearGradient>
    <linearGradient id="Gradiente_sem_nome_829" data-name="Gradiente sem nome 829" x1="450.7" y1="268.34" x2="450.7" y2="53.73" gradientUnits="userSpaceOnUse">
      <stop offset=".09" stop-color="#9f8047"/>
      <stop offset=".25" stop-color="#af8f55"/>
      <stop offset=".39" stop-color="#e2be87"/>
      <stop offset=".42" stop-color="#e7c892"/>
      <stop offset=".49" stop-color="#f3dfab"/>
      <stop offset=".55" stop-color="#faeeba"/>
      <stop offset=".6" stop-color="#fdf3c0"/>
      <stop offset=".63" stop-color="#ebdda8"/>
      <stop offset=".69" stop-color="#cfba82"/>
      <stop offset=".74" stop-color="#bea46b"/>
      <stop offset=".77" stop-color="#b89d63"/>
      <stop offset=".91" stop-color="#d7bb80"/>
    </linearGradient>
    <linearGradient id="Gradiente_sem_nome_769" data-name="Gradiente sem nome 769" x1="382.32" y1="160.8" x2="519.08" y2="160.8" gradientUnits="userSpaceOnUse">
      <stop offset=".02" stop-color="#dbb66b"/>
      <stop offset=".22" stop-color="#aa8b51"/>
      <stop offset=".46" stop-color="#a38447"/>
      <stop offset="1" stop-color="#ceb378"/>
    </linearGradient>
    <linearGradient id="Gradiente_sem_nome_812" data-name="Gradiente sem nome 812" x1="411.31" y1="213.89" x2="411.31" y2=".19" gradientUnits="userSpaceOnUse">
      <stop offset=".09" stop-color="#9f8047"/>
      <stop offset=".25" stop-color="#af8f55"/>
      <stop offset=".39" stop-color="#e2be87"/>
      <stop offset=".42" stop-color="#e7c892"/>
      <stop offset=".49" stop-color="#f3dfab"/>
      <stop offset=".55" stop-color="#faeeba"/>
      <stop offset=".6" stop-color="#fdf3c0"/>
      <stop offset=".66" stop-color="#ebdca7"/>
      <stop offset=".73" stop-color="#dac690"/>
      <stop offset=".77" stop-color="#d4bf88"/>
      <stop offset=".91" stop-color="#d7bb80"/>
    </linearGradient>
    <linearGradient id="Gradiente_sem_nome_769-2" data-name="Gradiente sem nome 769" x1="283.33" y1="107.15" x2="538.66" y2="107.15" xlink:href="#Gradiente_sem_nome_769"/>
    <linearGradient id="Gradiente_sem_nome_850" data-name="Gradiente sem nome 850" x1="306.68" y1="267.89" x2="306.68" y2="159.92" gradientUnits="userSpaceOnUse">
      <stop offset=".09" stop-color="#9f8047"/>
      <stop offset=".25" stop-color="#b39359"/>
      <stop offset=".39" stop-color="#e2be87"/>
      <stop offset=".42" stop-color="#e7c892"/>
      <stop offset=".49" stop-color="#f3dfab"/>
      <stop offset=".55" stop-color="#faeeba"/>
      <stop offset=".6" stop-color="#fdf3c0"/>
      <stop offset=".62" stop-color="#f2e6b2"/>
      <stop offset=".69" stop-color="#d6c38c"/>
      <stop offset=".74" stop-color="#c5ad75"/>
      <stop offset=".77" stop-color="#bfa66d"/>
      <stop offset=".91" stop-color="#d3b77c"/>
    </linearGradient>
    <linearGradient id="Gradiente_sem_nome_769-3" data-name="Gradiente sem nome 769" x1="289.15" y1="213.69" x2="323.66" y2="213.69" xlink:href="#Gradiente_sem_nome_769"/>
  </defs>
  <g id="Camada_1-2" data-name="Camada 1">
    <g>
      <g>
        <path class="cls-1" d="M105.68,72.91c16.73-.11,33.48.14,50.21.02,20.81-.15,41.65-.3,62.52-.19,28.2.15,67.36-6.37,77.21,28.63,6.84,24.31-3.32,48.17-26.97,57.55l-19.3,5.45c20.13,3.72,41.06,9.38,49.6,30.04,8.58,20.78,3.61,51.14-15.56,64.47-17.98,12.51-51.26,9.41-72.66,9.47-24.85.07-50.02-.39-74.92-.49-10.07-.04-20.08.48-30.14.47V72.91ZM148.07,158.58l62.26.02c24.3-1.38,42.43-12.99,40.83-39.53-1.53-25.31-21.74-30.84-43.5-31.9l-59.58.02v71.39ZM147.62,255.4c14.36-.26,28.68-.55,43.08-.47,26.55.14,61.38,1.49,66.56-32.89,5.62-37.36-18.58-49.41-51.39-50.98l-57.8.02-.45,84.33Z"/>
        <path class="cls-2" d="M518.39,268.34h-45.51s-.45-131.62-.45-131.62l-88.34,112.43-.88-3.79c.13-6.14-1.06-12.61-.48-18.76.24-2.56,6.82-10.51,8.77-13.09,15.91-20.96,32.88-41.26,49.25-61.85,25.97-32.68,51.99-65.34,78.09-97.92l-.44,214.61Z"/>
        <path class="cls-4" d="M316.05,72.91c5.47,7.95,11.98,15.08,18.06,22.54,10.94,13.44,21.5,27.26,32.59,40.58.65.79,4.12,5.14,4.6,5.1L538.47.19l-172.45,213.7-59.33-73.62c-.64-1.37.85-7.58,1.05-9.64,1.85-18.64.26-38.94-14.9-51.91l-8.69-5.81h31.9Z"/>
        <path class="cls-3" d="M323.41,267.89h-33.46c10.41-7.24,17.19-14.66,20.98-26.99,6.69-21.78,1.59-33.71-2.84-54.29-1.87-8.71-2.01-17.82-2.07-26.7,2.88,3.26,5.6,6.81,8.2,10.31,2.65,3.57,9.19,11.64,9.19,15.79v81.87Z"/>
      </g>
      <text class="cls-7" transform="translate(12.26 369.95) scale(.94 1)"><tspan x="0" y="0">BRIGHT MINDS</tspan></text>
      <line class="cls-5" x1="19.08" y1="395.9" x2="181.74" y2="396.78"/>
      <line class="cls-5" x1="483.74" y1="397.32" x2="653.28" y2="397.43"/>
      <text class="cls-6" transform="translate(191.17 404.89) scale(.94 1)"><tspan x="0" y="0">ACCELERATOR</tspan></text>
    </g>
  </g>
</svg>