<?xml version="1.0" encoding="UTF-8"?>
<svg id="Camada_2" data-name="Camada 2" xmlns="http://www.w3.org/2000/svg" xmlns:xlink="http://www.w3.org/1999/xlink" viewBox="0 0 634.91 405.01">
  <defs>
    <style>
      .cls-1 {
        fill: url(#Gradiente_sem_nome_1021-21);
        stroke: url(#Gradiente_sem_nome_1021-22);
      }

      .cls-1, .cls-2, .cls-3, .cls-4, .cls-5, .cls-6, .cls-7, .cls-8, .cls-9, .cls-10, .cls-11, .cls-12, .cls-13, .cls-14, .cls-15, .cls-16, .cls-17 {
        stroke-miterlimit: 10;
      }

      .cls-1, .cls-2, .cls-3, .cls-5, .cls-6, .cls-7, .cls-8, .cls-9, .cls-10, .cls-11, .cls-13, .cls-14, .cls-15, .cls-16, .cls-17 {
        stroke-width: .5px;
      }

      .cls-2 {
        fill: url(#Gradiente_sem_nome_1021-19);
        stroke: url(#Gradiente_sem_nome_1021-20);
      }

      .cls-18 {
        fill: url(#Gradiente_sem_nome_1021-32);
      }

      .cls-3 {
        fill: url(#Gradiente_sem_nome_1021-11);
        stroke: url(#Gradiente_sem_nome_1021-12);
      }

      .cls-19 {
        fill: url(#Gradiente_sem_nome_1021-30);
      }

      .cls-20 {
        fill: url(#Gradiente_sem_nome_1021-27);
      }

      .cls-21 {
        fill: url(#Gradiente_sem_nome_1021-31);
      }

      .cls-4 {
        fill: url(#Gradiente_sem_nome_1021-23);
      }

      .cls-4, .cls-12 {
        stroke: #fff;
        stroke-width: 2px;
      }

      .cls-22 {
        fill: url(#Gradiente_sem_nome_1021-34);
      }

      .cls-5 {
        fill: url(#Gradiente_sem_nome_791);
        stroke: url(#Gradiente_sem_nome_772);
      }

      .cls-23 {
        fill: url(#Gradiente_sem_nome_1021-24);
      }

      .cls-6 {
        fill: url(#Gradiente_sem_nome_829);
        stroke: url(#Gradiente_sem_nome_769);
      }

      .cls-7 {
        fill: url(#Gradiente_sem_nome_1021-15);
        stroke: url(#Gradiente_sem_nome_1021-16);
      }

      .cls-24 {
        fill: url(#Gradiente_sem_nome_1021-28);
      }

      .cls-8 {
        fill: url(#Gradiente_sem_nome_850);
        stroke: url(#Gradiente_sem_nome_769-3);
      }

      .cls-25 {
        fill: url(#Gradiente_sem_nome_1021-29);
      }

      .cls-9 {
        fill: url(#Gradiente_sem_nome_1021-7);
        stroke: url(#Gradiente_sem_nome_1021-8);
      }

      .cls-10 {
        fill: url(#Gradiente_sem_nome_812);
        stroke: url(#Gradiente_sem_nome_769-2);
      }

      .cls-11 {
        fill: url(#Gradiente_sem_nome_1021-13);
        stroke: url(#Gradiente_sem_nome_1021-14);
      }

      .cls-26 {
        fill: url(#Gradiente_sem_nome_1021-26);
      }

      .cls-12 {
        fill: #fff;
      }

      .cls-13 {
        fill: url(#Gradiente_sem_nome_1021-9);
        stroke: url(#Gradiente_sem_nome_1021-10);
      }

      .cls-27 {
        fill: url(#Gradiente_sem_nome_1021-33);
      }

      .cls-14 {
        fill: url(#Gradiente_sem_nome_1021-5);
        stroke: url(#Gradiente_sem_nome_1021-6);
      }

      .cls-28 {
        fill: url(#Gradiente_sem_nome_1021-25);
      }

      .cls-15 {
        fill: url(#Gradiente_sem_nome_1021);
        stroke: url(#Gradiente_sem_nome_1021-2);
      }

      .cls-16 {
        fill: url(#Gradiente_sem_nome_1021-17);
        stroke: url(#Gradiente_sem_nome_1021-18);
      }

      .cls-17 {
        fill: url(#Gradiente_sem_nome_1021-3);
        stroke: url(#Gradiente_sem_nome_1021-4);
      }
    </style>
    <linearGradient id="Gradiente_sem_nome_791" data-name="Gradiente sem nome 791" x1="185.98" y1="268.65" x2="185.98" y2="72.36" gradientUnits="userSpaceOnUse">
      <stop offset=".09" stop-color="#9f8047"/>
      <stop offset=".25" stop-color="#a3854a"/>
      <stop offset=".42" stop-color="#e2be87"/>
      <stop offset=".44" stop-color="#e7c892"/>
      <stop offset=".5" stop-color="#f3dfab"/>
      <stop offset=".55" stop-color="#faeeba"/>
      <stop offset=".6" stop-color="#fdf3c0"/>
      <stop offset=".64" stop-color="#e4d49e"/>
      <stop offset=".7" stop-color="#c8b178"/>
      <stop offset=".74" stop-color="#b79b61"/>
      <stop offset=".77" stop-color="#b19459"/>
      <stop offset=".91" stop-color="#d7bb80"/>
    </linearGradient>
    <linearGradient id="Gradiente_sem_nome_772" data-name="Gradiente sem nome 772" x1="87.06" y1="170.5" x2="284.89" y2="170.5" gradientUnits="userSpaceOnUse">
      <stop offset=".02" stop-color="#dbb66b"/>
      <stop offset=".22" stop-color="#aa8b51"/>
      <stop offset=".51" stop-color="#a38447"/>
      <stop offset="1" stop-color="#ceb378"/>
    </linearGradient>
    <linearGradient id="Gradiente_sem_nome_829" data-name="Gradiente sem nome 829" x1="432.33" y1="268.34" x2="432.33" y2="53.73" gradientUnits="userSpaceOnUse">
      <stop offset=".09" stop-color="#9f8047"/>
      <stop offset=".25" stop-color="#af8f55"/>
      <stop offset=".39" stop-color="#e2be87"/>
      <stop offset=".42" stop-color="#e7c892"/>
      <stop offset=".49" stop-color="#f3dfab"/>
      <stop offset=".55" stop-color="#faeeba"/>
      <stop offset=".6" stop-color="#fdf3c0"/>
      <stop offset=".63" stop-color="#ebdda8"/>
      <stop offset=".69" stop-color="#cfba82"/>
      <stop offset=".74" stop-color="#bea46b"/>
      <stop offset=".77" stop-color="#b89d63"/>
      <stop offset=".91" stop-color="#d7bb80"/>
    </linearGradient>
    <linearGradient id="Gradiente_sem_nome_769" data-name="Gradiente sem nome 769" x1="363.94" y1="160.8" x2="500.71" y2="160.8" gradientUnits="userSpaceOnUse">
      <stop offset=".02" stop-color="#dbb66b"/>
      <stop offset=".22" stop-color="#aa8b51"/>
      <stop offset=".46" stop-color="#a38447"/>
      <stop offset="1" stop-color="#ceb378"/>
    </linearGradient>
    <linearGradient id="Gradiente_sem_nome_812" data-name="Gradiente sem nome 812" x1="392.94" y1="213.89" x2="392.94" y2=".19" gradientUnits="userSpaceOnUse">
      <stop offset=".09" stop-color="#9f8047"/>
      <stop offset=".25" stop-color="#af8f55"/>
      <stop offset=".39" stop-color="#e2be87"/>
      <stop offset=".42" stop-color="#e7c892"/>
      <stop offset=".49" stop-color="#f3dfab"/>
      <stop offset=".55" stop-color="#faeeba"/>
      <stop offset=".6" stop-color="#fdf3c0"/>
      <stop offset=".66" stop-color="#ebdca7"/>
      <stop offset=".73" stop-color="#dac690"/>
      <stop offset=".77" stop-color="#d4bf88"/>
      <stop offset=".91" stop-color="#d7bb80"/>
    </linearGradient>
    <linearGradient id="Gradiente_sem_nome_769-2" data-name="Gradiente sem nome 769" x1="264.96" y1="107.15" x2="520.29" y2="107.15" xlink:href="#Gradiente_sem_nome_769"/>
    <linearGradient id="Gradiente_sem_nome_850" data-name="Gradiente sem nome 850" x1="288.31" y1="267.89" x2="288.31" y2="159.92" gradientUnits="userSpaceOnUse">
      <stop offset=".09" stop-color="#9f8047"/>
      <stop offset=".25" stop-color="#b39359"/>
      <stop offset=".39" stop-color="#e2be87"/>
      <stop offset=".42" stop-color="#e7c892"/>
      <stop offset=".49" stop-color="#f3dfab"/>
      <stop offset=".55" stop-color="#faeeba"/>
      <stop offset=".6" stop-color="#fdf3c0"/>
      <stop offset=".62" stop-color="#f2e6b2"/>
      <stop offset=".69" stop-color="#d6c38c"/>
      <stop offset=".74" stop-color="#c5ad75"/>
      <stop offset=".77" stop-color="#bfa66d"/>
      <stop offset=".91" stop-color="#d3b77c"/>
    </linearGradient>
    <linearGradient id="Gradiente_sem_nome_769-3" data-name="Gradiente sem nome 769" x1="270.78" y1="213.69" x2="305.29" y2="213.69" xlink:href="#Gradiente_sem_nome_769"/>
    <linearGradient id="Gradiente_sem_nome_1021" data-name="Gradiente sem nome 1021" x1="21.3" y1="369.95" x2="21.3" y2="319.55" gradientUnits="userSpaceOnUse">
      <stop offset="0" stop-color="#9f8047"/>
      <stop offset=".12" stop-color="#ab8d54"/>
      <stop offset=".31" stop-color="#efd8a3"/>
      <stop offset=".58" stop-color="#f3e0ac"/>
      <stop offset=".62" stop-color="#e9d49f"/>
      <stop offset=".7" stop-color="#ceb67f"/>
      <stop offset=".81" stop-color="#a3854b"/>
      <stop offset=".81" stop-color="#a3854a"/>
    </linearGradient>
    <linearGradient id="Gradiente_sem_nome_1021-2" data-name="Gradiente sem nome 1021" x1="0" y1="344.75" x2="42.59" y2="344.75" xlink:href="#Gradiente_sem_nome_1021"/>
    <linearGradient id="Gradiente_sem_nome_1021-3" data-name="Gradiente sem nome 1021" x1="82.14" x2="82.14" xlink:href="#Gradiente_sem_nome_1021"/>
    <linearGradient id="Gradiente_sem_nome_1021-4" data-name="Gradiente sem nome 1021" x1="61.66" y1="344.75" x2="102.84" y2="344.75" xlink:href="#Gradiente_sem_nome_1021"/>
    <linearGradient id="Gradiente_sem_nome_1021-5" data-name="Gradiente sem nome 1021" x1="125.93" x2="125.93" xlink:href="#Gradiente_sem_nome_1021"/>
    <linearGradient id="Gradiente_sem_nome_1021-6" data-name="Gradiente sem nome 1021" x1="121.28" y1="344.75" x2="130.58" y2="344.75" xlink:href="#Gradiente_sem_nome_1021"/>
    <linearGradient id="Gradiente_sem_nome_1021-7" data-name="Gradiente sem nome 1021" x1="172.22" y1="370.67" x2="172.22" y2="318.83" xlink:href="#Gradiente_sem_nome_1021"/>
    <linearGradient id="Gradiente_sem_nome_1021-8" data-name="Gradiente sem nome 1021" x1="149.64" y1="344.75" x2="194.89" y2="344.75" xlink:href="#Gradiente_sem_nome_1021"/>
    <linearGradient id="Gradiente_sem_nome_1021-9" data-name="Gradiente sem nome 1021" x1="236.72" x2="236.72" xlink:href="#Gradiente_sem_nome_1021"/>
    <linearGradient id="Gradiente_sem_nome_1021-10" data-name="Gradiente sem nome 1021" x1="215.42" y1="344.75" x2="258.01" y2="344.75" xlink:href="#Gradiente_sem_nome_1021"/>
    <linearGradient id="Gradiente_sem_nome_1021-11" data-name="Gradiente sem nome 1021" x1="294.65" x2="294.65" xlink:href="#Gradiente_sem_nome_1021"/>
    <linearGradient id="Gradiente_sem_nome_1021-12" data-name="Gradiente sem nome 1021" x1="274.3" y1="344.75" x2="315" y2="344.75" xlink:href="#Gradiente_sem_nome_1021"/>
    <linearGradient id="Gradiente_sem_nome_1021-13" data-name="Gradiente sem nome 1021" x1="386.29" x2="386.29" xlink:href="#Gradiente_sem_nome_1021"/>
    <linearGradient id="Gradiente_sem_nome_1021-14" data-name="Gradiente sem nome 1021" x1="360.12" y1="344.75" x2="412.46" y2="344.75" xlink:href="#Gradiente_sem_nome_1021"/>
    <linearGradient id="Gradiente_sem_nome_1021-15" data-name="Gradiente sem nome 1021" x1="439.55" x2="439.55" xlink:href="#Gradiente_sem_nome_1021"/>
    <linearGradient id="Gradiente_sem_nome_1021-16" data-name="Gradiente sem nome 1021" x1="434.9" y1="344.75" x2="444.2" y2="344.75" xlink:href="#Gradiente_sem_nome_1021"/>
    <linearGradient id="Gradiente_sem_nome_1021-17" data-name="Gradiente sem nome 1021" x1="487.94" x2="487.94" xlink:href="#Gradiente_sem_nome_1021"/>
    <linearGradient id="Gradiente_sem_nome_1021-18" data-name="Gradiente sem nome 1021" x1="466.65" y1="344.75" x2="509.24" y2="344.75" xlink:href="#Gradiente_sem_nome_1021"/>
    <linearGradient id="Gradiente_sem_nome_1021-19" data-name="Gradiente sem nome 1021" x1="555.15" x2="555.15" xlink:href="#Gradiente_sem_nome_1021"/>
    <linearGradient id="Gradiente_sem_nome_1021-20" data-name="Gradiente sem nome 1021" x1="531.62" y1="344.75" x2="578.68" y2="344.75" xlink:href="#Gradiente_sem_nome_1021"/>
    <linearGradient id="Gradiente_sem_nome_1021-21" data-name="Gradiente sem nome 1021" x1="612.85" y1="370.67" x2="612.85" y2="318.83" xlink:href="#Gradiente_sem_nome_1021"/>
    <linearGradient id="Gradiente_sem_nome_1021-22" data-name="Gradiente sem nome 1021" x1="593.63" y1="344.75" x2="632.01" y2="344.75" xlink:href="#Gradiente_sem_nome_1021"/>
    <linearGradient id="Gradiente_sem_nome_1021-23" data-name="Gradiente sem nome 1021" x1="465.37" y1="397.37" x2="634.91" y2="397.37" xlink:href="#Gradiente_sem_nome_1021"/>
    <linearGradient id="Gradiente_sem_nome_1021-24" data-name="Gradiente sem nome 1021" x1="172.91" y1="396.49" x2="188.58" y2="396.49" xlink:href="#Gradiente_sem_nome_1021"/>
    <linearGradient id="Gradiente_sem_nome_1021-25" data-name="Gradiente sem nome 1021" x1="201.22" y1="396.49" x2="215.02" y2="396.49" xlink:href="#Gradiente_sem_nome_1021"/>
    <linearGradient id="Gradiente_sem_nome_1021-26" data-name="Gradiente sem nome 1021" x1="228.65" y1="396.49" x2="242.46" y2="396.49" xlink:href="#Gradiente_sem_nome_1021"/>
    <linearGradient id="Gradiente_sem_nome_1021-27" data-name="Gradiente sem nome 1021" x1="257.6" y1="396.49" x2="268.49" y2="396.49" xlink:href="#Gradiente_sem_nome_1021"/>
    <linearGradient id="Gradiente_sem_nome_1021-28" data-name="Gradiente sem nome 1021" x1="283.97" y1="396.49" x2="294.21" y2="396.49" xlink:href="#Gradiente_sem_nome_1021"/>
    <linearGradient id="Gradiente_sem_nome_1021-29" data-name="Gradiente sem nome 1021" x1="308.45" y1="396.49" x2="319.34" y2="396.49" xlink:href="#Gradiente_sem_nome_1021"/>
    <linearGradient id="Gradiente_sem_nome_1021-30" data-name="Gradiente sem nome 1021" x1="334.82" y1="396.49" x2="347.09" y2="396.49" xlink:href="#Gradiente_sem_nome_1021"/>
    <linearGradient id="Gradiente_sem_nome_1021-31" data-name="Gradiente sem nome 1021" x1="359.7" y1="396.49" x2="375.38" y2="396.49" xlink:href="#Gradiente_sem_nome_1021"/>
    <linearGradient id="Gradiente_sem_nome_1021-32" data-name="Gradiente sem nome 1021" x1="386.86" y1="396.49" x2="399.38" y2="396.49" xlink:href="#Gradiente_sem_nome_1021"/>
    <linearGradient id="Gradiente_sem_nome_1021-33" data-name="Gradiente sem nome 1021" x1="412" y1="396.49" x2="428.41" y2="396.49" xlink:href="#Gradiente_sem_nome_1021"/>
    <linearGradient id="Gradiente_sem_nome_1021-34" data-name="Gradiente sem nome 1021" x1="443.69" y1="396.49" x2="455.96" y2="396.49" xlink:href="#Gradiente_sem_nome_1021"/>
  </defs>
  <g id="Camada_1-2" data-name="Camada 1">
    <g>
      <g>
        <path class="cls-5" d="M87.31,72.91c16.73-.11,33.48.14,50.21.02,20.81-.15,41.65-.3,62.52-.19,28.2.15,67.36-6.37,77.21,28.63,6.84,24.31-3.32,48.17-26.97,57.55l-19.3,5.45c20.13,3.72,41.06,9.38,49.6,30.04,8.58,20.78,3.61,51.14-15.56,64.47-17.98,12.51-51.26,9.41-72.66,9.47-24.85.07-50.02-.39-74.92-.49-10.07-.04-20.08.48-30.14.47V72.91ZM129.7,158.58l62.26.02c24.3-1.38,42.43-12.99,40.83-39.53-1.53-25.31-21.74-30.84-43.5-31.9l-59.58.02v71.39ZM129.25,255.4c14.36-.26,28.68-.55,43.08-.47,26.55.14,61.38,1.49,66.56-32.89,5.62-37.36-18.58-49.41-51.39-50.98l-57.8.02-.45,84.33Z"/>
        <path class="cls-6" d="M500.02,268.34h-45.51s-.45-131.62-.45-131.62l-88.34,112.43-.88-3.79c.13-6.14-1.06-12.61-.48-18.76.24-2.56,6.82-10.51,8.77-13.09,15.91-20.96,32.88-41.26,49.25-61.85,25.97-32.68,51.99-65.34,78.09-97.92l-.44,214.61Z"/>
        <path class="cls-10" d="M297.68,72.91c5.47,7.95,11.98,15.08,18.06,22.54,10.94,13.44,21.5,27.26,32.59,40.58.65.79,4.12,5.14,4.6,5.1L520.1.19l-172.45,213.7-59.33-73.62c-.64-1.37.85-7.58,1.05-9.64,1.85-18.64.26-38.94-14.9-51.91l-8.69-5.81h31.9Z"/>
        <path class="cls-8" d="M305.04,267.89h-33.46c10.41-7.24,17.19-14.66,20.98-26.99,6.69-21.78,1.59-33.71-2.84-54.29-1.87-8.71-2.01-17.82-2.07-26.7,2.88,3.26,5.6,6.81,8.2,10.31,2.65,3.57,9.19,11.64,9.19,15.79v81.87Z"/>
      </g>
      <g>
        <path class="cls-15" d="M42.34,356.27c0,8.64-6.36,13.68-18.54,13.68H.25v-50.4h22.2c11.37,0,17.46,5.11,17.46,13.1,0,5.18-2.44,9-6.09,11.09,5.08,1.73,8.53,5.98,8.53,12.53ZM9.05,326.89v13.9h12.45c6.09,0,9.54-2.3,9.54-6.91s-3.45-6.98-9.54-6.98h-12.45ZM33.48,355.33c0-5.04-3.59-7.27-10.22-7.27h-14.21v14.54h14.21c6.63,0,10.22-2.23,10.22-7.27Z"/>
        <path class="cls-17" d="M92.9,369.95l-9.68-14.76c-.61.07-1.22.07-1.83.07h-10.69v14.69h-8.8v-50.4h19.49c12.45,0,20.17,6.77,20.17,17.93,0,7.63-3.65,13.25-10.08,15.91l10.9,16.56h-9.47ZM80.99,327.47h-10.29v20.09h10.29c7.71,0,11.71-3.74,11.71-10.08s-3.99-10.01-11.71-10.01Z"/>
        <path class="cls-14" d="M121.53,319.55h8.8v50.4h-8.8v-50.4Z"/>
        <path class="cls-9" d="M185.62,344.17h8.32v20.09c-4.94,4.25-11.84,6.41-18.54,6.41-14.69,0-25.51-10.87-25.51-25.92s10.83-25.92,25.65-25.92c7.92,0,14.55,2.81,19.02,8.21l-5.55,5.76c-3.72-3.96-7.99-5.76-13.06-5.76-10.08,0-17.19,7.27-17.19,17.71s7.11,17.71,17.12,17.71c3.38,0,6.7-.72,9.75-2.59v-15.7Z"/>
        <path class="cls-13" d="M257.76,319.55v50.4h-8.8v-21.6h-24.5v21.6h-8.8v-50.4h8.8v20.81h24.5v-20.81h8.8Z"/>
        <path class="cls-3" d="M290.25,327.47h-15.7v-7.92h40.2v7.92h-15.7v42.48h-8.8v-42.48Z"/>
        <path class="cls-11" d="M403.88,369.95l-.07-33.41-15.56,27.65h-3.92l-15.56-27.22v32.98h-8.39v-50.4h7.24l18.81,33.41,18.48-33.41h7.24l.07,50.4h-8.32Z"/>
        <path class="cls-7" d="M435.15,319.55h8.8v50.4h-8.8v-50.4Z"/>
        <path class="cls-16" d="M508.99,319.55v50.4h-7.24l-26.12-34.13v34.13h-8.73v-50.4h7.24l26.12,34.13v-34.13h8.73Z"/>
        <path class="cls-2" d="M531.87,319.55h20.71c15.36,0,25.85,10.08,25.85,25.2s-10.49,25.2-25.85,25.2h-20.71v-50.4ZM552.17,362.03c10.56,0,17.39-6.84,17.39-17.28s-6.83-17.28-17.39-17.28h-11.5v34.56h11.5Z"/>
        <path class="cls-1" d="M593.93,364.62l3.04-7.27c3.79,3.24,9.81,5.54,15.63,5.54,7.38,0,10.49-2.81,10.49-6.55,0-10.87-28.15-3.74-28.15-22.47,0-8.14,6.09-15.05,19.08-15.05,5.68,0,11.64,1.58,15.77,4.46l-2.77,7.27c-4.26-2.66-8.93-3.96-13.06-3.96-7.31,0-10.29,3.02-10.29,6.84,0,10.73,28.08,3.75,28.08,22.25,0,8.07-6.16,14.98-19.15,14.98-7.38,0-14.75-2.45-18.68-6.05Z"/>
      </g>
      <line class="cls-12" x1=".71" y1="395.9" x2="163.37" y2="396.78"/>
      <line class="cls-4" x1="465.37" y1="397.32" x2="634.91" y2="397.43"/>
      <g>
        <path class="cls-23" d="M185.31,400.16h-9.16l-2.01,4.73h-1.24l7.26-16.8h1.15l7.26,16.8h-1.24l-2.03-4.73ZM184.88,399.13l-4.15-9.7-4.13,9.7h8.28Z"/>
        <path class="cls-28" d="M201.22,396.49c0-4.9,3.5-8.52,8.19-8.52,2.23,0,4.24.77,5.62,2.33l-.72.79c-1.35-1.42-3-1.99-4.85-1.99-4.04,0-7.08,3.17-7.08,7.39s3.04,7.39,7.08,7.39c1.85,0,3.5-.6,4.85-2.02l.72.79c-1.38,1.56-3.38,2.35-5.62,2.35-4.69,0-8.19-3.62-8.19-8.52Z"/>
        <path class="cls-26" d="M228.65,396.49c0-4.9,3.5-8.52,8.19-8.52,2.23,0,4.24.77,5.62,2.33l-.72.79c-1.35-1.42-3-1.99-4.85-1.99-4.04,0-7.08,3.17-7.08,7.39s3.04,7.39,7.08,7.39c1.85,0,3.5-.6,4.85-2.02l.72.79c-1.38,1.56-3.38,2.35-5.62,2.35-4.69,0-8.19-3.62-8.19-8.52Z"/>
        <path class="cls-20" d="M268.49,403.78v1.1h-10.89v-16.8h10.55v1.1h-9.41v6.62h8.41v1.08h-8.41v6.89h9.74Z"/>
        <path class="cls-24" d="M283.97,388.09h1.15v15.7h9.09v1.1h-10.24v-16.8Z"/>
        <path class="cls-25" d="M319.34,403.78v1.1h-10.89v-16.8h10.55v1.1h-9.41v6.62h8.41v1.08h-8.41v6.89h9.74Z"/>
        <path class="cls-19" d="M345.78,404.89l-3.77-5.62c-.5.07-.99.12-1.53.12h-4.51v5.5h-1.15v-16.8h5.66c3.97,0,6.36,2.11,6.36,5.66,0,2.66-1.35,4.51-3.7,5.26l3.95,5.88h-1.31ZM340.48,398.31c3.38,0,5.19-1.68,5.19-4.56s-1.8-4.56-5.19-4.56h-4.51v9.12h4.51Z"/>
        <path class="cls-21" d="M372.11,400.16h-9.16l-2.01,4.73h-1.24l7.26-16.8h1.15l7.26,16.8h-1.24l-2.03-4.73ZM371.68,399.13l-4.15-9.7-4.13,9.7h8.28Z"/>
        <path class="cls-18" d="M392.55,389.19h-5.68v-1.1h12.52v1.1h-5.68v15.7h-1.15v-15.7Z"/>
        <path class="cls-27" d="M412,396.49c0-4.87,3.5-8.52,8.21-8.52s8.21,3.62,8.21,8.52-3.52,8.52-8.21,8.52-8.21-3.65-8.21-8.52ZM427.24,396.49c0-4.25-3.02-7.39-7.04-7.39s-7.06,3.14-7.06,7.39,3.02,7.39,7.06,7.39,7.04-3.14,7.04-7.39Z"/>
        <path class="cls-22" d="M454.65,404.89l-3.77-5.62c-.5.07-.99.12-1.53.12h-4.51v5.5h-1.15v-16.8h5.66c3.97,0,6.36,2.11,6.36,5.66,0,2.66-1.35,4.51-3.7,5.26l3.95,5.88h-1.31ZM449.35,398.31c3.38,0,5.19-1.68,5.19-4.56s-1.8-4.56-5.19-4.56h-4.51v9.12h4.51Z"/>
      </g>
    </g>
  </g>
</svg>