<svg xmlns="http://www.w3.org/2000/svg" viewBox="0 0 320 120" fill="none">
  <defs>
    <linearGradient id="gold" x1="0%" y1="0%" x2="100%" y2="100%">
      <stop offset="0%" stop-color="#C8A84E"/>
      <stop offset="50%" stop-color="#E8D48B"/>
      <stop offset="100%" stop-color="#C8A84E"/>
    </linearGradient>
  </defs>
  <!-- B letter -->
  <path d="M10 10 L10 90 L40 90 L40 55 L55 55 C65 55 70 50 70 42 L70 38 C70 28 62 22 52 22 L40 22 L40 10 Z M40 30 L48 30 C53 30 56 33 56 38 L56 42 C56 47 53 50 48 50 L40 50 Z" fill="url(#gold)"/>
  <!-- M letter merged with growth chart -->
  <path d="M75 90 L75 35 L95 65 L115 35 L115 90 L105 90 L105 55 L95 72 L85 55 L85 90 Z" fill="url(#gold)"/>
  <!-- Growth arrow -->
  <path d="M108 18 L125 8 L122 16 L135 6" stroke="url(#gold)" stroke-width="3" stroke-linecap="round" stroke-linejoin="round" fill="none"/>
  <!-- BRIGHT MINDS text -->
  <text x="145" y="62" font-family="Montserrat, Arial, sans-serif" font-weight="700" font-size="28" fill="white" letter-spacing="3">BRIGHT MINDS</text>
  <!-- Line separator -->
  <line x1="145" y1="72" x2="318" y2="72" stroke="url(#gold)" stroke-width="1.5"/>
  <!-- ACCELERATOR text -->
  <text x="185" y="88" font-family="Montserrat, Arial, sans-serif" font-weight="400" font-size="12" fill="white" letter-spacing="6">ACCELERATOR</text>
</svg>
